<?xml version="1.0" encoding="UTF-8"?>
<svg width="200px" height="52px" viewBox="0 0 200 52" version="1.1" xmlns="http://www.w3.org/2000/svg" xmlns:xlink="http://www.w3.org/1999/xlink">
    <!-- Generator: Sketch 52.6 (67491) - http://www.bohemiancoding.com/sketch -->
    <title>logo - black</title>
    <desc>Created with Sketch.</desc>
    <g id="logo---black" stroke="none" stroke-width="1" fill="none" fill-rule="evenodd">
        <path d="M4.3,29.55 L2,13.3 L8.2,13.3 L8.85,17.15 C9.95,15.3 12.75,12.65 17,12.65 C23.15,12.65 26.6,15.95 27.65,23.35 L30,40.35 L23.85,40.35 L21.55,23.75 C21.1,20.7 18.6,18.6 15.9,18.6 C12.95,18.6 10.8,20.45 9.5,23.1 L10.5,29.55 L4.3,29.55 Z M54.35,40.55 L53.85,34.9 C56.7,33.55 57.85,30.6 57.35,27.2 C56.85,23.65 54.5,20.45 51.3,18.95 L50.8,13.05 C57.7,14.75 62.6,20.2 63.45,26.4 C64.4,33.2 60.95,39 54.35,40.55 Z M46.25,40.65 C39.25,39.1 34.6,33.75 33.65,27.2 C32.75,20.7 36.35,14.9 42.7,13.2 L43.2,18.8 C40.45,20.3 39.25,23.25 39.7,26.5 C40.25,30.25 42.55,33.35 45.75,34.75 L46.25,40.65 Z M66.35,18.5 L65.6,13.3 L69.85,13.3 L68.75,5.4 L74.9,5.05 L76.05,13.3 L82.95,13.3 L83.7,18.5 L66.35,18.5 Z M82.2,41.05 C76.85,41.05 73.4,38.3 72.4,31.5 L72.15,29.55 L78.35,29.55 L78.55,31.1 C78.95,33.8 80.8,35.4 82.95,35.4 C84.5,35.4 85.6,35 86.35,34.15 L88.35,38.7 C87.3,39.95 85.2,41.05 82.2,41.05 Z M103.95,12.75 C111.5,13.55 115.7,19.1 116.55,25.1 C116.7,26.45 116.65,28.05 116.5,28.75 L106.05,28.9 L105.4,24.2 L110.5,24.4 C110.05,21 107.55,18.55 104.35,17.9 L103.95,12.75 Z M90.35,27.45 C89.55,21.9 91.3,17.05 95.2,14.55 L97.05,28.7 C97.85,33.15 102.35,35.7 106.9,35.7 C110.7,35.7 114.15,34.9 115.95,33.3 L117.85,38 C115.85,39.75 111.8,41.05 106.6,41.05 C97.85,41.05 91.5,35.75 90.35,27.45 Z M125.7,51.15 L120.35,13.3 L126.5,13.3 L127.15,17.3 C128.45,15.05 131.3,12.65 135.5,12.65 C143.45,12.65 148.65,18.65 149.7,26.1 C150.95,34.7 146.25,40.9 138.4,41.05 L138,35.85 C142.85,35.35 144.2,30.8 143.7,26.9 C142.9,21.45 139.35,17.8 134.35,17.8 C130.65,17.8 128.45,20.7 127.85,22.8 L131.9,51.15 L125.7,51.15 Z M168.9,40.95 C161.4,40.75 154.9,34.6 153.85,27 C152.7,18.8 157.9,12.65 165.65,12.65 C169.75,12.65 172.75,15.05 173.8,16.55 L173.35,13.3 L179.35,13.3 L182.05,32.1 C182.4,34.35 183.1,35.75 184.55,35.75 C185,35.75 185.4,35.65 185.55,35.35 L187.45,38.4 C186.85,39.75 185.15,40.95 182.35,40.95 C180.55,40.95 177.6,40.05 176.6,37.3 L174.45,22.1 C173.2,19.95 170.4,17.6 166.55,17.6 C162.05,17.6 159.1,21.15 159.85,26.4 C160.55,31.25 164.2,35.35 168.5,35.9 L168.9,40.95 Z M192.3,40.35 L186.85,1.35 L193,1 L198.5,40.35 L192.3,40.35 Z" id="notepal" fill="#333333"></path>
    </g>
</svg>