<?xml version="1.0" encoding="UTF-8"?>
<svg width="800px" height="800px" viewBox="0 0 800 800" version="1.1" xmlns="http://www.w3.org/2000/svg" xmlns:xlink="http://www.w3.org/1999/xlink">
    <!-- Generator: Sketch 52.6 (67491) - http://www.bohemiancoding.com/sketch -->
    <title>landing-1</title>
    <desc>Created with Sketch.</desc>
    <defs>
        <rect id="path-1" x="0" y="0" width="800" height="800"></rect>
        <path d="M0.159292033,14.5858923 L16.8885985,233.652289 C16.9682076,234.694752 17.8372938,235.5 18.882792,235.5 L383.645066,235.5 C384.703539,235.5 385.578729,234.675293 385.641542,233.618686 L399.399737,2.18619453 C399.465285,1.08357168 398.624571,0.136581527 397.521948,0.0710328224 C397.461607,0.0674457147 397.401136,0.066595983 397.340718,0.0684862443 L2.09094263,12.4345811 C0.986913341,12.4691227 0.119922212,13.3921167 0.154463739,14.4961459 C0.155400711,14.5260938 0.157010548,14.5560168 0.159292033,14.5858923 Z" id="path-3"></path>
        <polygon id="path-5" points="0.970298568 10 15.5 213.5 367 211.5 380 -2.21156427e-13"></polygon>
        <path d="M3.5,3 C23,4 78.5,7 124.5,7 C144.166667,7 183.333333,4.83333333 242,0.5 C245,10.5 243.833333,19.3333333 238.5,27 C215.5,25.5 162,24 125,24 C92,24 28.5,32.5 7.5,35 C-1.5,22 -1.5,8.5 3.5,3 Z" id="path-7"></path>
        <linearGradient x1="50%" y1="0%" x2="50%" y2="100%" id="linearGradient-9">
            <stop stop-color="#751D3B" offset="0%"></stop>
            <stop stop-color="#8E2F4F" offset="100%"></stop>
        </linearGradient>
        <path d="M10.5,8.5 C12.5,5.02227998 22.9326086,3.1633112 20.5,2.5 C18.1372225,1.85572998 2.26785679,1.13889162 1,11 C-0.267856791,20.8611084 7.5,35 19.5,46.5 C23.6652268,50.4916757 39.373389,66.7103866 46.5,65 C59,62 84.5,34.5 84.5,23 C84.5,13.2726101 79.5,16 78,11.97772 C77.2312648,9.91634131 77.5,1 69.5,0.5 C63.4321414,0.120758836 57.5746277,10.5659767 40.7609076,11.97772 C23.9471875,13.3894633 8.5,11.97772 10.5,8.5 Z" id="path-10"></path>
    </defs>
    <g id="Page-1" stroke="none" stroke-width="1" fill="none" fill-rule="evenodd">
        <g id="1---Landing" transform="translate(-402.000000, -124.000000)">
            <g id="landing-1" transform="translate(402.000000, 124.000000)">
                <mask id="mask-2" fill="white">
                    <use xlink:href="#path-1"></use>
                </mask>
                <use id="Rectangle" fill="#F8B51C" fill-rule="nonzero" xlink:href="#path-1"></use>
                <rect id="Rectangle" fill="#FF6B00" fill-rule="nonzero" mask="url(#mask-2)" x="86" y="467" width="629" height="156"></rect>
                <g id="Group" mask="url(#mask-2)">
                    <g transform="translate(200.000000, 166.000000)">
                        <g id="Path-14-+-Path-14-Copy-+-Path-14-Copy-2-+-Line-2-+-Line-2-Copy-+-Line-2-Copy-3-+-Line-2-Copy-2-Mask" stroke-width="1" fill="none" fill-rule="evenodd" transform="translate(0.000000, 2.000000)">
                            <mask id="mask-4" fill="white">
                                <use xlink:href="#path-3"></use>
                            </mask>
                            <use id="Mask" fill="#D6D6D6" fill-rule="nonzero" xlink:href="#path-3"></use>
                            <polygon id="Path-14" fill="#E5E5E5" fill-rule="nonzero" mask="url(#mask-4)" points="40.2876081 218 22.5 226 9 18 17.5 18.5"></polygon>
                            <polygon id="Path-14-Copy" fill="#E1F5FE" fill-rule="nonzero" mask="url(#mask-4)" points="39.7876081 218 22 226 379.5 227.5 370 219"></polygon>
                            <path d="M378.5,227.5 L387.5,239.5" id="Line-2-Copy" stroke="#E1F5FE" stroke-linecap="square" fill-rule="nonzero" mask="url(#mask-4)"></path>
                            <polygon id="Path-14-Copy-2" fill="#E5E5E5" fill-rule="nonzero" mask="url(#mask-4)" points="373 37 391 8 379.5 227.5 364 217"></polygon>
                            <path d="M389.5,10.5 L401.5,-2.5" id="Line-2" stroke="#E5E5E5" stroke-linecap="square" fill-rule="nonzero" mask="url(#mask-4)"></path>
                            <path d="M-4.5,19.5 L10.5,8.5" id="Line-2-Copy-3" stroke="#E5E5E5" stroke-linecap="square" fill-rule="nonzero" mask="url(#mask-4)" transform="translate(3.000000, 14.000000) scale(-1, 1) translate(-3.000000, -14.000000) "></path>
                            <path d="M17.5,226.5 L22.5,236.5" id="Line-2-Copy-2" stroke="#E9A986" stroke-linecap="square" fill-rule="nonzero" mask="url(#mask-4)" transform="translate(20.000000, 231.500000) scale(-1, 1) translate(-20.000000, -231.500000) "></path>
                        </g>
                        <g id="Path-13" stroke-width="1" fill="none" fill-rule="evenodd" transform="translate(11.000000, 10.000000)">
                            <mask id="mask-6" fill="white">
                                <use xlink:href="#path-5"></use>
                            </mask>
                            <use id="Mask" fill="#333333" fill-rule="nonzero" xlink:href="#path-5"></use>
                            <path d="M206,37.5 C214.029697,36.9880395 187.265368,29.6262389 193,28 C204.015368,24.8762389 216.413068,27.0208667 239.5,28 C272.413068,29.3958667 275.115332,27.2781593 305,32.75 C328.365332,37.0281593 353.802267,45.9106492 346,47.5 C333.552267,50.0356492 264.5,37.6988465 264.5,41 C264.5,44.6988465 317.510839,48.3653866 346,61.5 C356.010839,66.1153866 353.383439,76.5 341.5,76.5 C307.633439,76.5 256.800526,58.2308311 254.5,61.5 C252.050526,64.9808311 290,73 324.5,84.5 C333.597437,87.532479 333.336844,103.040167 323,101 C247,86 152.807721,75.4340808 160.5,79.5 C170.307721,84.6840808 263.432125,91.5906373 341.5,116 C356.182125,120.590637 363.976981,136.512254 346,137.5 C250.226981,142.762254 100.5,126.5 130.5,132 C160.5,137.5 211.13955,140.422249 276,157 C289.38955,160.422249 286.079271,171.577562 273.5,172 C219.079271,173.827562 187.601656,158.013699 146.5,161.5 C131.601656,162.763699 189.041473,179.462895 175,181.5 C140.791473,186.462895 50,184.5 50,175.5 C50,166.5 94.3047968,176.512362 96.5,172 C98.8047968,167.262362 59.9771202,163.700253 59,157 C58.2271202,151.700253 96.4175488,152.038921 93,148 C88.1675488,142.288921 58.7725635,145.856181 42.5,137.5 C31.0225635,131.606181 22.1426694,121.519465 37.5,119.5 C103.892669,110.769465 198.135603,123.117945 206,116 C212.885603,109.767945 83.9260494,101.025744 67,92.8 C57.1760494,88.0257436 160.320878,93.2716674 152.5,90 C140.83841,85.1216675 73.2500873,88.4290704 28.0350624,76.5 C14.5000873,72.9290704 20.2007647,61.4212291 35,59 C73.6832335,52.6712291 106.230985,62.429419 135,59 C143.980985,57.929419 114.224358,55.9251156 110.5,50 C105.974358,42.8001156 104.127405,34.6312298 118.5,32.75 C151.877405,28.3812298 176.779697,39.3630395 206,37.5 Z" fill="#D8D8D8" fill-rule="nonzero" opacity="0.160272507" mask="url(#mask-6)"></path>
                        </g>
                        <path d="M59.5,17 C79,18 147.5,17 193.5,17 C213.166667,17 254.166667,14.6666667 316.5,10 C316.833333,21 315,29 311,34 C305,41.5 266.676471,30.5 202.176471,32 C169.615425,32.7572336 72,55.5 63,42.5 C54,29.5 54.5,22.5 59.5,17 Z" id="Mask-Copy" fill="#000000" fill-rule="nonzero" opacity="0.206170945"></path>
                        <polygon id="Path-12" fill="#76807D" fill-rule="nonzero" points="70.5 9 61 9 56 22 74 23.5"></polygon>
                        <polygon id="Path-12-Copy" fill="#76807D" fill-rule="nonzero" transform="translate(313.250000, 9.750000) scale(-1, -1) translate(-313.250000, -9.750000) " points="318.5 3.5 306.5 2 305 17.5 321.5 14.5"></polygon>
                        <g id="Path-13-Copy" stroke-width="1" fill="none" fill-rule="evenodd" transform="translate(69.000000, 0.000000)">
                            <mask id="mask-8" fill="white">
                                <use xlink:href="#path-7"></use>
                            </mask>
                            <use id="Mask" fill="#CDC5B6" fill-rule="nonzero" xlink:href="#path-7"></use>
                            <path d="M-8.19652272,-4 C13.0654388,-3 73.5802522,-1.73194792e-13 123.736674,-7.72715225e-14 C145.180362,-3.55271368e-14 187.886011,-2.16666667 251.853622,-6.5 C255.124693,3.5 253.852609,12.3333333 248.037372,20 C222.959161,18.5 164.625062,17 124.281853,17 C88.3000717,17 19.0624023,21.5 -3.83509473,24 C-13.6483077,11 -13.6483077,1.5 -8.19652272,-4 Z" fill="#E6EDD6" fill-rule="nonzero" mask="url(#mask-8)"></path>
                        </g>
                    </g>
                </g>
                <g id="Person-4" mask="url(#mask-2)" fill-rule="nonzero">
                    <g transform="translate(543.000000, 398.000000)">
                        <path d="M137.5,180 C143.29899,180 146.5,171.120814 143,143.003393 C139.5,114.885973 140.29899,122.285294 134.5,122.285294 C128.70101,122.285294 122.5,135.647635 122.5,143.003393 C122.5,150.359152 131.70101,180 137.5,180 Z" id="Oval-Copy-4" fill="#634713"></path>
                        <path d="M30,146.586522 C30,139.887191 17.2989899,123 11.5,123 C5.70101013,123 4.5,158.756409 4.5,165.455739 C4.5,171.206709 13.0989328,182.344521 19,184.998858 C19.973113,185.43657 30,153.285853 30,146.586522 Z" id="Oval" fill="#634713"></path>
                        <path d="M47.5,37.5 L50.5,71.5 L54.5,82.5 L54.5,89.5 C76.5,95.5 87.3333333,95 87,88 C86.6666667,81 86.6666667,65.3333333 87,41 L47.5,37.5 Z" id="Path-20" fill="#634713"></path>
                        <ellipse id="Oval" fill="#634713" cx="47" cy="57.5" rx="6" ry="7.5"></ellipse>
                        <ellipse id="Oval-Copy-9" fill="#634713" cx="89" cy="56.5" rx="6" ry="7.5"></ellipse>
                        <path d="M81.5,74 C90.5757893,73.7249761 86.6053134,66.5722546 91.5,57.9201307 C94.644778,52.3612438 94.5,46.7653512 94.5,39.4201307 C94.5,34.5533962 95.1757048,20.4814756 94,19 C89.1134708,12.8426093 76,-0.42030139 68,1.07969861 C64.0128725,1.82728503 50.4935224,2.95073824 46.5,8.50498856 C42.4806914,14.0951027 50.8344216,56.5573162 52,59.5 C54.627965,66.1347062 57.6560422,73.190646 63,75.4201307 C66.6539004,76.9445281 74.799588,74.2030428 81.5,74 Z" id="Oval-Copy-3" fill="#111111"></path>
                        <path d="M20.5107181,101.501769 C24.2223647,98.2056314 78.7761671,109.615199 89,109.001769 C90.1755285,108.931238 119.94912,91.3982059 124.5,98.5 C126.510599,101.637605 142.950448,121.38915 142.510718,124.501769 C141.559699,131.233544 141.5,146.162142 129,149 C105.659507,154.29896 41.0890073,154.5 33.0890073,152.5 C25.0890073,150.5 1.13796933,138.889288 0.510718087,128.501769 C0.321490008,125.368081 7,113.5 20.5107181,101.501769 Z" id="Path-17-Copy-8" fill="#539B04"></path>
                        <path d="M20.5100919,101.501769 C20.3136025,99.4058831 33.0883811,85.5 70.5,85.5 C107.911619,85.5 124.171689,96.3249632 125.010092,98.0017695 C126.678628,101.338841 124.943566,141.918523 122.510092,161.001769 C121.050337,172.449135 131.937733,257.744213 123.91922,261 C103.187733,269.417683 40.8998554,255.544407 36,248 C33.141499,247.063467 22.0100919,117.501769 20.5100919,101.501769 Z" id="Path-17-Copy-10" fill="#3F7306"></path>
                    </g>
                </g>
                <rect id="Rectangle" fill="#C79985" fill-rule="nonzero" mask="url(#mask-2)" x="319" y="426" width="40" height="61"></rect>
                <ellipse id="Oval" fill="#C79985" fill-rule="nonzero" mask="url(#mask-2)" cx="314" cy="439" rx="7" ry="9"></ellipse>
                <ellipse id="Oval-Copy-10" fill="#C79985" fill-rule="nonzero" mask="url(#mask-2)" cx="361" cy="439" rx="7" ry="9"></ellipse>
                <path d="M281,496.5 C288.55622,486.010837 313.218283,525.633402 346.131084,527.006388 C360.178419,527.592385 395.812888,505.936971 400.131084,507.506388 C401.204873,507.896649 407.168162,554.50136 406.631084,557.006388 C402.548352,576.048996 385.943003,556.2649 383.509529,575.348147 C382.049773,586.795512 377.9395,576.408687 369.920987,579.664473 C349.1895,588.082156 322.131084,582.006388 283.631084,565.506388 C245.131084,549.006388 276,498.5 281,496.5 Z" id="Path-17-Copy-3" fill="#008FAC" fill-rule="nonzero" mask="url(#mask-2)"></path>
                <path d="M277.578289,497.5 C284.262247,488.221668 293.421711,485.5 343.5,483.5 C393.578289,481.5 399.128192,503.749516 400.078289,508.5 C402.578289,521 394.38337,544.244955 393.578289,548 C389.495557,567.042608 390.376347,557.989164 387.942873,577.072411 C386.483117,588.519777 388.357091,628.744213 380.338577,632 C359.607091,640.417683 317.692678,649.123099 295.515973,641.003285 C295.989928,631.425053 293.978145,575.544407 289.078289,568 C283.282991,566.101281 274.816069,538.998101 273.578289,518.5 C273.025083,509.338693 275.513724,500.365925 277.578289,497.5 Z" id="Path-17-Copy-2" fill="#19798D" fill-rule="nonzero" mask="url(#mask-2)"></path>
                <path d="M340.5,455 C349.575789,454.724976 356.105313,449.652124 361,441 C364.144778,435.441113 370.822927,411.824543 370.5,407 C370.35016,404.761377 366.293022,403.19421 365,401 C363.705991,398.804115 365.175705,395.981476 364,394.5 C359.113471,388.342609 337.165578,378.509977 327,386.504989 C316.834422,394.5 317.7537,422.154323 318,424 C318.447285,427.35178 316.834422,432.057316 318,435 C322.424821,446.171148 324,455.5 340.5,455 Z" id="Oval" fill="#222222" fill-rule="nonzero" mask="url(#mask-2)"></path>
                <path d="M303.597757,487.47772 C303.597757,497.360809 320,522.47772 344.597757,522.47772 C358.044972,522.47772 362,516.5 369.5,507.5 C376.154008,499.51519 373.650521,490.016814 372,482 C370.767014,476.01121 361.299599,479.003783 343.597757,490.97772 C328.306262,486.362345 318.440343,483.869772 314,483.5 C307.829645,482.98616 303.597757,484.5 303.597757,487.47772 Z" id="Path-19" fill="#008FAC" fill-rule="nonzero" mask="url(#mask-2)"></path>
                <g id="Person-3" mask="url(#mask-2)" fill-rule="nonzero">
                    <g transform="translate(425.000000, 403.000000)">
                        <ellipse id="Oval" fill="#FFE4D9" cx="81.5" cy="51.5" rx="8.5" ry="9.5"></ellipse>
                        <path d="M1.58636239,154.859643 C0.185208972,137.359643 -1.39801261,108.550119 7.58636239,104.359643 C23.9067967,96.7474949 36.9322917,131.043316 55.5,123.859643 C71.5883588,117.635207 78.6506644,100.113093 93.0863624,105.359643 C95.6192881,106.280216 114,116.40547 105.086362,156.359643 C100.844272,175.37424 97.603058,165.848807 95.169584,184.932054 C93.7098289,196.37942 89.5995554,185.992594 81.5810423,189.248381 C60.8495554,197.666063 43.2629554,197.368195 21.0862506,189.248381 C21.5602054,179.670149 1.58636239,159.050119 1.58636239,154.859643 Z" id="Path-17-Copy" fill="#7E0098"></path>
                        <rect id="Rectangle" fill="#FFDACA" x="33" y="49" width="39" height="66"></rect>
                        <path d="M16.5,161.5 C13.2999162,143.754532 -0.982261629,108.348657 7.57017927,104.359643 C23.3860209,96.9828462 34.5,98.5 55,98.5 C75.5,98.5 81.5648592,98.5 93.0701793,105.359643 C95.4074316,106.753147 89.8752603,154.104598 89.0701793,157.859643 C84.9874469,176.902251 100.556975,217.880712 92.5384615,221.136498 C71.8069746,229.554181 38.6767048,237.119814 16.5,229 C16.9739548,219.421769 16.6616176,162.396221 16.5,161.5 Z" id="Path-17-Copy-9" fill="#520961"></path>
                        <path d="M45.8175966,134 C50.1173404,134 41.8644987,111.483772 55,93.3550151 C62.223927,83.3850249 79.2036517,72.3970862 80.6769138,65.9874363 C84.3343324,50.0752816 80.6769138,32.8414951 80.6769138,26 C80.6769138,11.3915895 64.4562406,0 51.9214842,0 C39.3867278,0 23.2644036,11.3915895 23.2644036,26 C23.2644036,32.9026055 26.1306078,46.5092719 23.2644036,66.4136169 C18.5,99.5 39.2056254,134 45.8175966,134 Z" id="Oval" fill="#FFEC00"></path>
                    </g>
                </g>
                <path d="M363.164546,485.756353 C367.164546,476.756353 375.673943,482.636113 372.164546,474.756353 C371.153245,472.485645 365.664546,464.756353 364.164546,463.756353 C355.764874,458.156571 344,473.25 337,478.75 C332.275413,482.462176 350.37996,484.862705 342.664546,484.756353 C340.5537,484.727256 359.379922,494.271759 363.164546,485.756353 Z" id="Path-19-Copy-3" fill="#008FAC" fill-rule="nonzero" mask="url(#mask-2)"></path>
                <path d="M309.671946,482.296871 C308.404089,492.157979 314.171946,500.796871 326.171946,512.296871 C330.337173,516.288547 338.045335,524.007258 345.171946,522.296871 C357.671946,519.296871 365.614353,501.266025 371.5,493.765797 C380.5,482.296871 369.383589,465.213388 365,465 C358.363061,464.676922 349.725467,473.293907 343.5,474.796871 C332.485034,477.456124 318.420524,473.523067 315.671946,474.296871 C312.26188,475.256902 309.942542,480.192236 309.671946,482.296871 Z" id="Path-19-Copy-2" fill="#2FA5BD" fill-rule="nonzero" mask="url(#mask-2)"></path>
                <g id="Group-5" mask="url(#mask-2)">
                    <g transform="translate(112.500000, 375.000000)">
                        <rect id="Rectangle-Copy-9" fill="#B8B8B8" fill-rule="nonzero" x="391" y="214" width="4" height="23"></rect>
                        <rect id="Rectangle-Copy-8" fill="#B8B8B8" fill-rule="nonzero" x="341" y="214" width="4" height="23"></rect>
                        <rect id="Rectangle-Copy-11" fill="#B8B8B8" fill-rule="nonzero" x="531" y="214" width="4" height="23"></rect>
                        <rect id="Rectangle-Copy-10" fill="#B8B8B8" fill-rule="nonzero" x="481" y="214" width="4" height="23"></rect>
                        <rect id="Rectangle" fill="#F2D4C7" fill-rule="nonzero" x="69" y="50" width="40" height="61"></rect>
                        <ellipse id="Oval" fill="#F2D4C7" fill-rule="nonzero" cx="65" cy="63" rx="7" ry="9"></ellipse>
                        <ellipse id="Oval-Copy-10" fill="#F2D4C7" fill-rule="nonzero" cx="112" cy="63" rx="7" ry="9"></ellipse>
                        <path d="M89,81.2190823 C92.89569,81.0759329 96.9096451,85.8423557 99.8634745,83.4897108 C103.187772,80.841998 107,75.134561 113.5,62.4123801 C115.140173,59.2021374 124.351873,27.5796715 118.5,12.0767948 C113.46843,-1.25292115 93.6460298,1.01402881 90.5,1.01402881 C89.8964726,1.01402881 88.3660568,4.63447153 82.5,5.99227352 C78.2687491,6.97167093 69.8648459,4.93981914 67,8.20482672 C58.9269598,17.4055093 59.7895405,36.2825996 63.5393852,52.4558907 C70.4647454,82.3253589 74.2158507,77.1489016 78,81.2190823 C80.7184719,84.1430347 82.7068945,81.4503262 89,81.2190823 Z" id="Oval-Copy-2" fill="#8B572A" fill-rule="nonzero"></path>
                        <path d="M27,122 C29.5802912,118.41817 143.152444,130.823695 149.5,133 C167,139 157.468007,190.987926 156,202.5 C155.197301,208.794744 141.5,213 137.5,211.5 C131.709681,209.32863 127.385288,204.423262 123.776042,205.888738 C103.044555,214.30642 85.4579548,214.008552 63.28125,205.888738 C63.7552048,196.310506 43.3998554,200.044407 38.5,192.5 C36.0061776,191.682947 32.9413779,211.888534 25.5,212.5 C15.6486448,213.309497 1.20514053,193.677395 0.5,182 C-0.0532063129,172.838693 24.9354346,124.865925 27,122 Z" id="Path-17-Copy-6" fill="#D0021B" fill-rule="nonzero"></path>
                        <path d="M27,122 C31.0710855,112 71.6872097,114.560078 107.5,114.292292 C149.163047,113.980762 149.163047,131.315236 149.5,133 C152,145.5 144,179.162142 134.287608,203 C129.991877,213.543338 132,226 132,237.5 C132,260.184732 65.6767048,244.119814 43.5,236 C43.9739548,226.421769 35.9709409,202.544407 31.0710855,195 C26.1712301,187.455593 22.9289145,132 27,122 Z" id="Path-17-Copy-5" fill="#B20218" fill-rule="nonzero"></path>
                        <path d="M64.5,137.5 C68.6652268,141.491676 71.373389,143.710387 78.5,142 C91,139 112.215375,127.015406 116,118.5 C120,109.5 113.05976,107.957724 111,107.5 C107.403988,106.700886 99.8547371,104.094297 92,104 C80.1961172,103.858293 67.7125393,106.509822 67,106.5 C64.8891538,106.470903 60.5,108 57,111 C53.5,114 52.5,126 64.5,137.5 Z" id="Path-19-Copy-5" fill="#E56B7A" fill-rule="nonzero"></path>
                        <rect id="Rectangle" fill="#B8B8B8" fill-rule="nonzero" x="108" y="214" width="4" height="23"></rect>
                        <rect id="Rectangle-Copy-5" fill="#B8B8B8" fill-rule="nonzero" x="58" y="214" width="4" height="23"></rect>
                        <rect id="Rectangle-Copy-7" fill="#B8B8B8" fill-rule="nonzero" x="251" y="214" width="4" height="23"></rect>
                        <rect id="Rectangle-Copy-6" fill="#B8B8B8" fill-rule="nonzero" x="201" y="214" width="4" height="23"></rect>
                        <path d="M55.3766385,155 L112.797017,155 C128.690478,155 141.574673,167.884195 141.574673,183.777656 C141.574673,185.699508 141.382154,187.616526 141,189.5 L137.852258,205.01387 C135.626294,215.984693 125.824906,223.759556 114.635377,223.430452 L51.1884955,221.564368 C40.0770358,221.23756 30.7894934,213.010656 29.1242171,202.019833 L27,188 C24.6254569,172.328015 35.4051631,157.698414 51.0771478,155.323871 C52.5001635,155.108262 53.9373816,155 55.3766385,155 Z" id="Rectangle-Copy-3" fill="url(#linearGradient-9)" fill-rule="nonzero"></path>
                        <g id="Path-19-Copy-6" stroke-width="1" fill="none" fill-rule="evenodd" transform="translate(46.000000, 104.000000)">
                            <mask id="mask-11" fill="white">
                                <use xlink:href="#path-10"></use>
                            </mask>
                            <use id="Mask" fill="#D0021B" fill-rule="nonzero" xlink:href="#path-10"></use>
                            <path d="M18.5,33.5 C22.6652268,37.4916757 24.9111755,39.0022976 32.5,38 C59,34.5 74.4959503,8.17225361 74.5,7 C74.5157254,2.44803488 68.1379447,1.70816581 66.5,1.34417811 C57.5,-0.655821894 22.1866892,2.51635778 21,2.5 C19.8683016,2.48440023 14.1630428,3.77587098 10.5,6.5 C7.33072782,8.85692203 6.02298512,12.4851659 6.5,14.8595549 C7.44187154,19.547814 12.7633519,28.0023789 18.5,33.5 Z" fill="#A10317" fill-rule="nonzero" mask="url(#mask-11)"></path>
                        </g>
                    </g>
                </g>
                <path d="M311.204468,535 L370.451191,535 C386.302045,535 399.151701,547.849656 399.151701,563.700509 C399.151701,565.139766 399.043438,566.576984 398.82783,568 L396.790629,581.445524 C395.087043,592.689193 385.422169,601 374.050173,601 L307.605487,601 C296.233491,601 286.568617,592.689193 284.86503,581.445524 L282.82783,568 C280.453287,552.328015 291.232993,537.698414 306.904978,535.323871 C308.327993,535.108262 309.765211,535 311.204468,535 Z" id="Rectangle" fill="url(#linearGradient-9)" fill-rule="nonzero" mask="url(#mask-2)"></path>
                <path d="M451.204468,535 L510.451191,535 C526.302045,535 539.151701,547.849656 539.151701,563.700509 C539.151701,565.139766 539.043438,566.576984 538.82783,568 L536.790629,581.445524 C535.087043,592.689193 525.422169,601 514.050173,601 L447.605487,601 C436.233491,601 426.568617,592.689193 424.86503,581.445524 L422.82783,568 C420.453287,552.328015 431.232993,537.698414 446.904978,535.323871 C448.327993,535.108262 449.765211,535 451.204468,535 Z" id="Rectangle-Copy" fill="url(#linearGradient-9)" fill-rule="nonzero" mask="url(#mask-2)"></path>
                <path d="M594.498909,532.461331 L651.124464,532.000961 C666.844915,531.873152 679.692468,544.513486 679.820276,560.233937 C679.832509,561.738606 679.725415,563.241876 679.5,564.729615 L677.436382,578.349495 C675.744347,589.516923 666.1939,597.80312 654.899457,597.903071 L584.703532,598.524274 C572.00148,598.636681 561.613308,588.430758 561.500901,575.728706 C561.5003,575.660864 561.5,575.593019 561.5,575.525174 L561.5,565.729615 C561.5,547.460981 576.230879,532.609852 594.498909,532.461331 Z" id="Rectangle-Copy-4" fill="url(#linearGradient-9)" fill-rule="nonzero" mask="url(#mask-2)"></path>
                <rect id="Rectangle" fill="#883B03" fill-rule="nonzero" mask="url(#mask-2)" x="99" y="608" width="589" height="151"></rect>
            </g>
        </g>
    </g>
</svg>